<svg id="Capa_1" enable-background="new 0 0 512 512" height="512" viewBox="0 0 512 512" width="512" xmlns="http://www.w3.org/2000/svg"><g><path d="m287.486 115.82c-30.82 0-55.805-26.981-55.805-60.265 0-23.056 11.989-43.088 29.602-53.222 11.655-6.706 26.203 1.859 26.203 15.305z" fill="#eb9fa9"/><path d="m401.141 115.82c30.82 0 55.805-26.981 55.805-60.265 0-23.056-11.989-43.088-29.602-53.222-11.655-6.706-26.203 1.859-26.203 15.305z" fill="#eb9fa9"/><path d="m152.729 510.547c-15.603-5.056-24.154-21.803-19.098-37.407 14.266-44.028 23.314-128.352 23.314-152.161 0-16.402 13.296-29.698 29.699-29.698 16.402 0 29.698 13.296 29.698 29.698 0 26.001-9.183 117.934-26.206 170.47-5.064 15.626-21.825 24.146-37.407 19.098z" fill="#deb597"/><path d="m324.326 511.864c-16.331-1.527-28.332-16.004-26.805-32.334 4.859-51.965-7.983-118.943-23.026-148.897-7.361-14.657-1.445-32.507 13.212-39.868 14.656-7.36 32.507-1.447 39.867 13.212 21.754 43.317 34.529 122.858 29.085 181.082-1.516 16.226-15.893 28.335-32.333 26.805z" fill="#deb597"/><path d="m455.644 217.847c-2.709-2.187-2.569-6.395.246-8.445 27.4-19.965 28.354-61.457 1.089-82.509-2.085-1.61-2.705-4.469-1.477-6.799 3.785-7.184 5.934-15.363 5.934-24.049 0-37.615-38.46-61.667-71.581-47.768-2.696 1.131-5.794.499-7.792-1.636-9.435-10.08-22.853-16.384-37.75-16.384s-28.315 6.304-37.75 16.385c-1.998 2.135-5.096 2.767-7.792 1.636-33.101-13.889-71.581 10.133-71.581 47.767 0 8.525 2.07 16.562 5.726 23.65 1.32 2.559.673 5.672-1.589 7.454-20.777 16.357-25.531 45.535-12.121 67.474 2.109 3.45.238 7.897-3.71 8.77-10.808 2.39-20.794 8.115-28.413 16.672-1.885 2.117-4.973 2.602-7.406 1.146-8.03-4.807-17.42-7.573-27.459-7.573-13.471 0-25.646 4.945-34.977 13.017-1.728 1.494-4.177 1.805-6.242.827-5.372-2.544-11.357-3.981-17.672-3.991-48.101-.077-67.142 53.735-54.431 106.671 3.549 14.783 19.994 22.352 33.698 15.77 5.526-2.655 11.282-5.748 16.969-9.304 2.558 5.528 6.102 10.709 10.635 15.27-2.759 24.729 10.842 46.944 31.569 56.824 2.796 1.333 4.425 4.312 3.931 7.37-.42 2.603-.854 5.205-1.301 7.797-3.903 22.629 11.69 36.134 34.319 40.036 22.586 3.899 43.719-3.238 47.627-25.904 1.07-6.206 2.079-12.485 3.02-18.748.424-2.817 3.328-4.492 5.993-3.487 16.562 6.248 35.388 5.16 51.386-3.672 2.693-1.487 6.055.235 6.481 3.282.853 6.099 1.58 12.402 2.148 18.858 2.02 22.941 22.523 32.686 45.333 30.68 22.874-2.014 39.516-15.1 37.502-37.974-.428-4.866-.937-9.717-1.518-14.537-.401-3.33 1.125-6.564 3.865-8.499 6.671-4.71 12.268-10.84 16.346-17.954 1.109-1.935 3.12-3.143 5.349-3.217 35.45-1.17 59.307-35.947 49.453-68.765-1.123-3.74.606-7.685 4.116-9.397 17.214-8.395 29.078-26.057 29.078-46.499.003-16.264-7.51-30.767-19.251-40.245z" fill="#f9efcd"/><path d="m241.754 355.039c1.685-3.903-.03-8.403-3.891-10.18-20.322-9.355-28.362-41.23-17.361-60.551 2.029-3.564.787-8.068-2.666-10.28-17.706-11.345-20.864-50.578-4.762-70.034-9.872 2.671-18.944 8.157-25.989 16.07-1.885 2.117-4.973 2.602-7.406 1.146-8.03-4.807-17.42-7.573-27.459-7.573-13.471 0-25.646 4.945-34.977 13.017-1.728 1.494-4.177 1.805-6.242.827-5.372-2.544-11.357-3.981-17.672-3.991-48.101-.077-67.142 53.735-54.431 106.671 3.549 14.783 19.994 22.352 33.698 15.77 5.526-2.655 11.282-5.748 16.969-9.304 2.558 5.528 6.102 10.709 10.635 15.27-2.759 24.729 10.842 46.944 31.569 56.824 2.796 1.333 4.425 4.312 3.931 7.37-.42 2.603-.854 5.205-1.301 7.797-3.903 22.629 11.69 36.134 34.319 40.036 22.586 3.899 43.719-3.238 47.627-25.904 1.07-6.206 2.079-12.485 3.021-18.748.424-2.817 3.328-4.492 5.993-3.487 14.524 5.479 30.79 5.314 45.363-.766-23.01-4.243-38.683-37.473-28.968-59.98z" fill="#f8debb"/><path d="m89.568 344.128c-2.833 0-5.544-1.613-6.812-4.353-10.635-22.989-6.159-49.655 11.404-67.934 2.869-2.986 7.617-3.082 10.604-.212s3.081 7.618.212 10.604c-13.25 13.79-16.628 33.904-8.606 51.244 1.739 3.759.101 8.217-3.658 9.956-1.019.471-2.09.695-3.144.695z" fill="#f6c5a3"/><g><g fill="#eda1ab"><ellipse cx="262.356" cy="170.541" rx="30.241" ry="24.082"/><ellipse cx="426.271" cy="170.541" rx="30.241" ry="24.082"/></g><g fill="#565e75"><path d="m279.98 154.859c-4.142 0-7.5-3.358-7.5-7.5v-12.362c0-4.142 3.358-7.5 7.5-7.5s7.5 3.358 7.5 7.5v12.362c0 4.142-3.358 7.5-7.5 7.5z"/><path d="m408.647 154.859c-4.142 0-7.5-3.358-7.5-7.5v-12.362c0-4.142 3.358-7.5 7.5-7.5s7.5 3.358 7.5 7.5v12.362c0 4.142-3.358 7.5-7.5 7.5z"/><path d="m344.313 193.376c-8.668 0-16.911-3.754-22.615-10.3-2.721-3.123-2.396-7.86.727-10.582 3.122-2.721 7.86-2.396 10.581.727 2.855 3.275 6.976 5.154 11.307 5.154s8.452-1.879 11.308-5.155c2.72-3.123 7.459-3.448 10.581-.726 3.123 2.721 3.448 7.459.726 10.581-5.704 6.548-13.947 10.301-22.615 10.301z"/><path d="m356.601 139.97c0-4.562-5.501-7.231-12.287-7.231s-12.287 2.668-12.287 7.231 5.501 9.291 12.287 9.291c6.785 0 12.287-4.729 12.287-9.291z"/></g></g></g></svg>